{"title":"Broken Embraces.2009.SWESUB.DVDRip.XviD.AC3.(5.1).-Zen_Bud","uid":5551447,"size":1472905006,"categoryP":"video","categoryS":"movies","magnet":"?xt=urn:btih:9ca760d9705bd3a8f564d55ce2bbc15d0bd08b83&amp;dn=Broken+Embraces.2009.SWESUB.DVDRip.XviD.AC3.%285.1%29.-Zen_Bud&amp;tr=udp%3A%2F%2Ftracker.openbittorrent.com%3A80&amp;tr=udp%3A%2F%2Fopen.demonii.com%3A1337&amp;tr=udp%3A%2F%2Ftracker.coppersurfer.tk%3A6969&amp;tr=udp%3A%2F%2Fexodus.desync.com%3A6969","seeders":0,"leechers":1,"uploader":"Zen_Bud","files":-1,"time":1273563564,"description":"Sourse: Los abrazos rotos [2009 PAL DVD-DL][Es Multisubs[9] \n &lt;a href=&quot; http://thepiratebay.se/torrent/5535360/Los_abrazos_rotos_%5B2009_PAL_DVD-DL%5D%5BEs_Multisubs%5B9%5D&quot; rel=&quot;nofollow&quot; target=&quot;_NEW&quot;&gt; http://thepiratebay.se/torrent/5535360/Los_abrazos_rotos_%5B2009_PAL_DVD-DL%5D%5BEs_Multisubs%5B9%5D&lt;/a&gt;\n             \n\n                           THX &quot;Scratzz&quot; :o)\n \n\nGeneral\nComplete name                    : Broken Embraces.avi\nFormat                           : AVI\nFormat/Info                      : Audio Video Interleave\nFile size                        : 1.37 GiB\nDuration                         : 2h 2mn\nOverall bit rate                 : 1 607 Kbps\n\nVideo\nID                               : 0\nFormat                           : MPEG-4 Visual\nCodec ID/Hint                    : XviD\nDuration                         : 2h 2mn\nBit rate                         : 1 148 Kbps\nWidth                            : 720 pixels\nHeight                           : 436 pixels\nDisplay aspect ratio             : 2.35:1\nResolution                       : 8 bits\nColorimetry                      : 4:2:0\nScan type                        : Progressive\nBits/(Pixel*Frame)               : 0.146\nStream size                      : 1 004 MiB (71%)\nWriting library                  : XviD 1.1.2 (UTC 2006-11-01)\n\nAudio\nID                               : 1\nFormat                           : AC-3\nFormat/Info                      : Audio Coding 3\nDuration                         : 2h 2mn\nBit rate mode                    : Constant\nBit rate                         : 448 Kbps\nChannel(s)                       : 6 channels\nChannel positions                : Front: L C R, Side: L R, LFE\nSampling rate                    : 48.0 KHz\nStream size                      : 391 MiB (28%)\n\n\n","torrent":{"xt":"urn:btih:9ca760d9705bd3a8f564d55ce2bbc15d0bd08b83","amp;dn":"Broken+Embraces.2009.SWESUB.DVDRip.XviD.AC3.%285.1%29.-Zen_Bud","amp;tr":["udp%3A%2F%2Ftracker.openbittorrent.com%3A80","udp%3A%2F%2Fopen.demonii.com%3A1337","udp%3A%2F%2Ftracker.coppersurfer.tk%3A6969","udp%3A%2F%2Fexodus.desync.com%3A6969"],"infoHash":"9ca760d9705bd3a8f564d55ce2bbc15d0bd08b83","infoHashBuffer":{"type":"Buffer","data":[156,167,96,217,112,91,211,168,245,100,213,92,226,187,193,93,11,208,139,131]},"announce":[],"urlList":[]}}